<?xml version="1.0" encoding="utf-8"?>
<!-- Generator: Adobe Illustrator 24.2.3, SVG Export Plug-In . SVG Version: 6.00 Build 0)  -->
<svg version="1.1" xmlns="http://www.w3.org/2000/svg" xmlns:xlink="http://www.w3.org/1999/xlink" x="0px" y="0px"
	 viewBox="0 0 1424.5 789" style="enable-background:new 0 0 1424.5 789;" xml:space="preserve">
<style type="text/css">
	.st0{fill:#9EECFF;}
	.st1{fill:#519AA9;}
	.st2{fill:none;stroke:#519AA9;stroke-width:3;stroke-miterlimit:10;}
	.st3{fill:#519AA9;stroke:#519AA9;stroke-width:3;stroke-miterlimit:10;}
</style>
<g id="Layer_2">
	<rect class="st0" width="1424.5" height="789"/>
</g>
<g id="Layer_1">
	<g>
		<path class="st1" d="M1424.19,169.5c4.58,0,8.31,3.73,8.31,8.31V727.5h-886V178.23c0-4.81,3.92-8.73,8.73-8.73H1424.19
			 M1424.19,166.5H555.23c-6.48,0-11.73,5.25-11.73,11.73V730.5h892V177.81C1435.5,171.56,1430.44,166.5,1424.19,166.5
			L1424.19,166.5z"/>
	</g>
	<g>
		<line class="st2" x1="546" y1="203" x2="1433" y2="203"/>
	</g>
	<circle class="st3" cx="560" cy="187" r="4"/>
	<circle class="st3" cx="575" cy="187" r="4"/>
	<circle class="st3" cx="590" cy="187" r="4"/>
	<line class="st2" x1="1367.5" y1="211" x2="1387.5" y2="211"/>
	<line class="st2" x1="1367.5" y1="217" x2="1387.5" y2="217"/>
	<line class="st2" x1="1367.5" y1="223" x2="1387.5" y2="223"/>
</g>
</svg>
